M48
; DRILL file {KiCad (5.1.2)-2} date 07/05/19 17:58:36
; FORMAT={-:-/ absolute / inch / decimal}
; #@! TF.CreationDate,2019-07-05T17:58:36+05:30
; #@! TF.GenerationSoftware,Kicad,Pcbnew,(5.1.2)-2
; #@! TF.FileFunction,Plated,1,2,PTH
FMAT,2
INCH
T1C0.0157
T2C0.0315
T3C0.0354
T4C0.0394
T5C0.0400
T6C0.0472
T7C0.0551
T8C0.0630
T9C0.1102
%
G90
G05
T1
X4.0256Y-4.2406
X4.0268Y-3.6303
X4.337Y-3.7697
X4.4972Y-2.0303
X4.4972Y-2.2189
X4.6961Y-2.2106
X4.6969Y-2.0283
X4.702Y-3.7748
X4.8114Y-3.2563
X4.8142Y-3.1051
X4.9945Y-3.2484
X5.1945Y-3.1004
X5.4488Y-3.5811
X5.4677Y-3.7638
T2
X3.1492Y-2.3882
X3.1492Y-2.8882
X4.9823Y-3.5413
X4.9823Y-3.8413
X5.0823Y-3.5413
X5.0823Y-3.8413
X5.1823Y-3.5413
X5.1823Y-3.8413
T3
X5.9945Y-4.0803
X5.9945Y-4.1803
T4
X4.8228Y-4.2673
X5.0197Y-4.2673
X5.3339Y-4.2642
X5.3339Y-4.3642
X5.3339Y-4.4642
X4.4213Y-4.0713
X4.4213Y-4.1713
X4.4213Y-4.2713
T5
X4.0345Y-2.7906
X4.1345Y-2.7906
X4.2345Y-2.7906
X4.3345Y-2.7906
X4.3945Y-4.6906
X4.4345Y-2.7906
X4.4945Y-4.6906
X4.5345Y-2.7906
X4.5945Y-4.6906
X4.6345Y-2.7906
X4.6945Y-4.6906
X4.7345Y-2.7906
X4.7945Y-4.6906
X4.8945Y-2.7906
X4.8945Y-4.6906
X4.9945Y-2.7906
X5.0945Y-2.7906
X5.0945Y-4.6906
X5.1945Y-2.7906
X5.1945Y-4.6906
X5.2945Y-2.7906
X5.2945Y-4.6906
X5.3945Y-2.7906
X5.3945Y-4.6906
X5.4945Y-2.7906
X5.4945Y-4.6906
X5.5945Y-2.7906
X5.5945Y-4.6906
T6
X3.339Y-2.4067
X3.339Y-2.9067
X5.0996Y-5.0756
X5.198Y-5.0756
X5.2965Y-5.0756
X5.3949Y-5.0756
X5.4933Y-5.0756
X5.5917Y-5.0756
X6.5315Y-2.8862
X6.5315Y-2.9846
X2.972Y-3.6713
X2.972Y-3.7697
X2.972Y-3.8681
X3.1295Y-3.0528
X3.1295Y-3.1512
X3.1295Y-3.2496
X3.1295Y-3.348
X3.5358Y-2.9559
X3.5358Y-3.0543
X3.5358Y-3.1528
X3.5358Y-3.2512
X3.5358Y-3.3496
X3.5358Y-3.448
X5.589Y-3.8421
X5.589Y-4.3421
X6.1874Y-2.3728
X6.2858Y-2.3728
X4.2988Y-3.6453
X4.7988Y-3.6453
X4.9122Y-2.3756
X5.0106Y-2.3756
X5.1091Y-2.3756
X5.2075Y-2.3756
X5.3059Y-2.3756
X5.4043Y-2.3756
X5.5028Y-2.3756
X5.6012Y-2.3756
X6.5181Y-2.3661
X6.6165Y-2.3661
X4.3843Y-5.0689
X4.4827Y-5.0689
X4.5811Y-5.0689
X4.6795Y-5.0689
X4.778Y-5.0689
X4.8764Y-5.0689
X5.8449Y-2.3768
X5.9433Y-2.3768
X3.7016Y-2.374
X3.8Y-2.374
X4.813Y-2.9583
X5.313Y-2.9583
X4.5685Y-2.974
X4.5685Y-3.474
X4.0126Y-2.3783
X4.111Y-2.3783
X4.2094Y-2.3783
X4.3079Y-2.3783
X4.4063Y-2.3783
X4.5047Y-2.3783
X4.6031Y-2.3783
X4.7016Y-2.3783
X2.9642Y-4.1315
X2.9642Y-4.2299
X6.0807Y-2.9016
X6.0807Y-3.0
X6.0807Y-3.0984
X6.0807Y-3.1969
X6.0807Y-3.2953
X6.0807Y-3.3937
X6.0807Y-3.4921
X6.0807Y-3.5906
T7
X3.5181Y-3.8594
X3.5181Y-4.3594
T8
X6.3791Y-3.3839
X6.4972Y-3.1988
X6.6154Y-3.3839
T9
X3.8272Y-4.7189
X3.835Y-2.7189
X5.8803Y-2.7169
X5.8803Y-4.7189
T0
M30
