G04 #@! TF.GenerationSoftware,KiCad,Pcbnew,(5.1.2)-2*
G04 #@! TF.CreationDate,2019-07-05T17:58:29+05:30*
G04 #@! TF.ProjectId,AnimalBehaviour,416e696d-616c-4426-9568-6176696f7572,rev?*
G04 #@! TF.SameCoordinates,Original*
G04 #@! TF.FileFunction,Copper,L1,Top*
G04 #@! TF.FilePolarity,Positive*
%FSLAX46Y46*%
G04 Gerber Fmt 4.6, Leading zero omitted, Abs format (unit mm)*
G04 Created by KiCad (PCBNEW (5.1.2)-2) date 2019-07-05 17:58:29*
%MOMM*%
%LPD*%
G04 APERTURE LIST*
%ADD10R,1.900000X1.900000*%
%ADD11C,1.900000*%
%ADD12O,1.600000X2.400000*%
%ADD13R,1.600000X2.400000*%
%ADD14O,1.524000X2.540000*%
%ADD15C,5.000000*%
%ADD16C,2.000000*%
%ADD17R,2.000000X2.000000*%
%ADD18O,2.800000X2.800000*%
%ADD19R,2.800000X2.800000*%
%ADD20C,2.600000*%
%ADD21R,2.600000X2.600000*%
%ADD22C,1.500000*%
%ADD23O,1.800000X1.800000*%
%ADD24R,1.800000X1.800000*%
%ADD25O,1.600000X1.600000*%
%ADD26C,1.600000*%
%ADD27O,2.400000X2.400000*%
%ADD28C,2.400000*%
%ADD29O,3.010000X1.510000*%
%ADD30C,0.800000*%
%ADD31C,0.800000*%
G04 APERTURE END LIST*
D10*
X154450000Y-73700000D03*
D11*
X154450000Y-76200000D03*
X154450000Y-78700000D03*
X154450000Y-81200000D03*
X154450000Y-83700000D03*
X154450000Y-86200000D03*
X154450000Y-88700000D03*
X154450000Y-91200000D03*
D12*
X126550000Y-89950000D03*
X131630000Y-97570000D03*
X129090000Y-89950000D03*
X129090000Y-97570000D03*
X131630000Y-89950000D03*
D13*
X126550000Y-97570000D03*
D11*
X89810000Y-87580000D03*
X89810000Y-85080000D03*
X89810000Y-82580000D03*
X89810000Y-80080000D03*
X89810000Y-77580000D03*
D10*
X89810000Y-75080000D03*
D14*
X142100000Y-119140000D03*
X139560000Y-119140000D03*
X137020000Y-119140000D03*
X129400000Y-119140000D03*
X131940000Y-119140000D03*
X134480000Y-119140000D03*
X124320000Y-119140000D03*
X121780000Y-119140000D03*
X119240000Y-119140000D03*
X114160000Y-119140000D03*
X111620000Y-119140000D03*
X142100000Y-70880000D03*
X139560000Y-70880000D03*
X137020000Y-70880000D03*
X134480000Y-70880000D03*
X131940000Y-70880000D03*
X129400000Y-70880000D03*
X126860000Y-70880000D03*
X124320000Y-70880000D03*
X120256000Y-70880000D03*
X117716000Y-70880000D03*
X115176000Y-70880000D03*
X112636000Y-70880000D03*
X110096000Y-70880000D03*
X107556000Y-70880000D03*
X105016000Y-70880000D03*
X102476000Y-70880000D03*
X116700000Y-119140000D03*
D15*
X149360000Y-119860000D03*
X149360000Y-69010000D03*
X97410000Y-69060000D03*
X97210000Y-119860000D03*
D16*
X122500000Y-108390000D03*
D17*
X127500000Y-108390000D03*
D18*
X89360000Y-98030000D03*
D19*
X89360000Y-110730000D03*
D10*
X148460000Y-60370000D03*
D11*
X150960000Y-60370000D03*
X79490000Y-85040000D03*
X79490000Y-82540000D03*
X79490000Y-80040000D03*
D10*
X79490000Y-77540000D03*
D11*
X96520000Y-60300000D03*
D10*
X94020000Y-60300000D03*
D11*
X165900000Y-75810000D03*
D10*
X165900000Y-73310000D03*
D20*
X165030000Y-81250000D03*
X168030000Y-85950000D03*
D21*
X162030000Y-85950000D03*
D10*
X165560000Y-60100000D03*
D11*
X168060000Y-60100000D03*
D22*
X152260000Y-106180000D03*
X152260000Y-103640000D03*
D10*
X157160000Y-60270000D03*
D11*
X159660000Y-60270000D03*
X75490000Y-93250000D03*
X75490000Y-95750000D03*
D10*
X75490000Y-98250000D03*
D11*
X75290000Y-104940000D03*
D10*
X75290000Y-107440000D03*
X123860000Y-128750000D03*
D11*
X121360000Y-128750000D03*
X118860000Y-128750000D03*
X116360000Y-128750000D03*
X113860000Y-128750000D03*
X111360000Y-128750000D03*
X129530000Y-128920000D03*
X132030000Y-128920000D03*
X134530000Y-128920000D03*
X137030000Y-128920000D03*
X139530000Y-128920000D03*
D10*
X142030000Y-128920000D03*
D11*
X119420000Y-60410000D03*
X116920000Y-60410000D03*
X114420000Y-60410000D03*
X111920000Y-60410000D03*
X109420000Y-60410000D03*
X106920000Y-60410000D03*
X104420000Y-60410000D03*
D10*
X101920000Y-60410000D03*
D11*
X142270000Y-60340000D03*
X139770000Y-60340000D03*
X137270000Y-60340000D03*
X134770000Y-60340000D03*
X132270000Y-60340000D03*
X129770000Y-60340000D03*
X127270000Y-60340000D03*
D10*
X124770000Y-60340000D03*
D23*
X112300000Y-103410000D03*
X112300000Y-105950000D03*
D24*
X112300000Y-108490000D03*
D25*
X79990000Y-73360000D03*
D26*
X79990000Y-60660000D03*
D27*
X84810000Y-73830000D03*
D28*
X84810000Y-61130000D03*
D27*
X122250000Y-75140000D03*
D28*
X134950000Y-75140000D03*
X141960000Y-110290000D03*
D27*
X141960000Y-97590000D03*
D28*
X116040000Y-88240000D03*
D27*
X116040000Y-75540000D03*
X109190000Y-92590000D03*
D28*
X121890000Y-92590000D03*
D29*
X135480000Y-113390000D03*
X135480000Y-110850000D03*
X135480000Y-108310000D03*
D30*
X122280000Y-78870000D03*
X131940000Y-78750000D03*
X102280000Y-92210000D03*
X102250000Y-107710000D03*
X119280000Y-56150000D03*
X119300000Y-51520000D03*
X114230000Y-56360000D03*
X114230000Y-51570000D03*
X138880000Y-95600000D03*
X138400000Y-90960000D03*
X110160000Y-95750000D03*
X119430000Y-95880000D03*
X122210000Y-82710000D03*
X126860000Y-82510000D03*
D31*
X131820000Y-78870000D02*
X131940000Y-78750000D01*
X122280000Y-78870000D02*
X131820000Y-78870000D01*
X102280000Y-107680000D02*
X102250000Y-107710000D01*
X102280000Y-92210000D02*
X102280000Y-107680000D01*
X119280000Y-51540000D02*
X119300000Y-51520000D01*
X119280000Y-56150000D02*
X119280000Y-51540000D01*
X114230000Y-56360000D02*
X114230000Y-51570000D01*
X138400000Y-95120000D02*
X138880000Y-95600000D01*
X138400000Y-90960000D02*
X138400000Y-95120000D01*
X119300000Y-95750000D02*
X119430000Y-95880000D01*
X110160000Y-95750000D02*
X119300000Y-95750000D01*
X126660000Y-82710000D02*
X126860000Y-82510000D01*
X122210000Y-82710000D02*
X126660000Y-82710000D01*
M02*
