G04 #@! TF.GenerationSoftware,KiCad,Pcbnew,(5.1.2)-2*
G04 #@! TF.CreationDate,2019-07-05T17:58:29+05:30*
G04 #@! TF.ProjectId,AnimalBehaviour,416e696d-616c-4426-9568-6176696f7572,rev?*
G04 #@! TF.SameCoordinates,Original*
G04 #@! TF.FileFunction,Legend,Top*
G04 #@! TF.FilePolarity,Positive*
%FSLAX46Y46*%
G04 Gerber Fmt 4.6, Leading zero omitted, Abs format (unit mm)*
G04 Created by KiCad (PCBNEW (5.1.2)-2) date 2019-07-05 17:58:29*
%MOMM*%
%LPD*%
G04 APERTURE LIST*
%ADD10C,0.120000*%
%ADD11C,0.381000*%
%ADD12C,0.300000*%
%ADD13C,0.150000*%
%ADD14C,0.304800*%
%ADD15C,0.500000*%
%ADD16C,0.200000*%
G04 APERTURE END LIST*
D10*
X156340000Y-82450000D02*
X156340000Y-71830000D01*
X156340000Y-71830000D02*
X152560000Y-71830000D01*
X152560000Y-71830000D02*
X152560000Y-79700000D01*
X152560000Y-79700000D02*
X149700000Y-79700000D01*
X149700000Y-79700000D02*
X149700000Y-82450000D01*
X156340000Y-82450000D02*
X156340000Y-93070000D01*
X156340000Y-93070000D02*
X152560000Y-93070000D01*
X152560000Y-93070000D02*
X152560000Y-85200000D01*
X152560000Y-85200000D02*
X149700000Y-85200000D01*
X149700000Y-85200000D02*
X149700000Y-82450000D01*
X154450000Y-71480000D02*
X154150000Y-70880000D01*
X154150000Y-70880000D02*
X154750000Y-70880000D01*
X154750000Y-70880000D02*
X154450000Y-71480000D01*
X125160000Y-88510000D02*
X125160000Y-99010000D01*
X133020000Y-88510000D02*
X125160000Y-88510000D01*
X133020000Y-99010000D02*
X133020000Y-88510000D01*
X125160000Y-99010000D02*
X133020000Y-99010000D01*
X125220000Y-91510000D02*
X125220000Y-92760000D01*
X132960000Y-91510000D02*
X125220000Y-91510000D01*
X132960000Y-96010000D02*
X132960000Y-91510000D01*
X125220000Y-96010000D02*
X132960000Y-96010000D01*
X125220000Y-94760000D02*
X125220000Y-96010000D01*
X125220000Y-92760000D02*
G75*
G02X125220000Y-94760000I0J-1000000D01*
G01*
X90110000Y-72260000D02*
X89810000Y-72860000D01*
X89510000Y-72260000D02*
X90110000Y-72260000D01*
X89810000Y-72860000D02*
X89510000Y-72260000D01*
X85060000Y-84080000D02*
X85060000Y-81330000D01*
X87920000Y-84080000D02*
X85060000Y-84080000D01*
X87920000Y-89450000D02*
X87920000Y-84080000D01*
X91700000Y-89450000D02*
X87920000Y-89450000D01*
X91700000Y-81330000D02*
X91700000Y-89450000D01*
X85060000Y-78580000D02*
X85060000Y-81330000D01*
X87920000Y-78580000D02*
X85060000Y-78580000D01*
X87920000Y-73210000D02*
X87920000Y-78580000D01*
X91700000Y-73210000D02*
X87920000Y-73210000D01*
X91700000Y-81330000D02*
X91700000Y-73210000D01*
D11*
X144640000Y-81040000D02*
X144640000Y-69610000D01*
X144640000Y-69610000D02*
X143370000Y-68340000D01*
X143370000Y-68340000D02*
X78600000Y-68340000D01*
X144640000Y-121680000D02*
X78600000Y-121680000D01*
X78600000Y-121680000D02*
X78600000Y-68340000D01*
X144640000Y-81040000D02*
X147180000Y-83580000D01*
X147180000Y-83580000D02*
X147180000Y-116600000D01*
X147180000Y-116600000D02*
X144640000Y-119140000D01*
X144640000Y-119140000D02*
X144640000Y-121680000D01*
D10*
X151810000Y-66260000D02*
X151810000Y-122360000D01*
X94710000Y-66260000D02*
X151810000Y-66260000D01*
X94710000Y-122360000D02*
X94710000Y-66260000D01*
X151810000Y-122360000D02*
X94710000Y-122360000D01*
X129450000Y-109140000D02*
X129450000Y-107640000D01*
X130200000Y-108390000D02*
X128700000Y-108390000D01*
X119919000Y-108669000D02*
X119919000Y-108111000D01*
X119959000Y-109062000D02*
X119959000Y-107718000D01*
X119999000Y-109303000D02*
X119999000Y-107477000D01*
X120039000Y-109494000D02*
X120039000Y-107286000D01*
X120079000Y-109655000D02*
X120079000Y-107125000D01*
X120119000Y-109797000D02*
X120119000Y-106983000D01*
X120159000Y-109926000D02*
X120159000Y-106854000D01*
X120199000Y-110044000D02*
X120199000Y-106736000D01*
X120239000Y-110153000D02*
X120239000Y-106627000D01*
X120279000Y-110256000D02*
X120279000Y-106524000D01*
X120319000Y-110352000D02*
X120319000Y-106428000D01*
X120359000Y-110443000D02*
X120359000Y-106337000D01*
X120399000Y-110530000D02*
X120399000Y-106250000D01*
X120439000Y-110612000D02*
X120439000Y-106168000D01*
X120479000Y-110691000D02*
X120479000Y-106089000D01*
X120519000Y-110767000D02*
X120519000Y-106013000D01*
X120559000Y-110839000D02*
X120559000Y-105941000D01*
X120599000Y-110909000D02*
X120599000Y-105871000D01*
X120639000Y-110977000D02*
X120639000Y-105803000D01*
X120679000Y-111042000D02*
X120679000Y-105738000D01*
X120719000Y-111105000D02*
X120719000Y-105675000D01*
X120759000Y-111167000D02*
X120759000Y-105613000D01*
X120799000Y-111226000D02*
X120799000Y-105554000D01*
X120839000Y-111284000D02*
X120839000Y-105496000D01*
X120879000Y-111339000D02*
X120879000Y-105441000D01*
X120919000Y-111394000D02*
X120919000Y-105386000D01*
X120959000Y-111447000D02*
X120959000Y-105333000D01*
X120999000Y-111498000D02*
X120999000Y-105282000D01*
X121039000Y-111548000D02*
X121039000Y-105232000D01*
X121079000Y-111597000D02*
X121079000Y-105183000D01*
X121119000Y-111645000D02*
X121119000Y-105135000D01*
X121159000Y-111692000D02*
X121159000Y-105088000D01*
X121199000Y-111737000D02*
X121199000Y-105043000D01*
X121239000Y-111781000D02*
X121239000Y-104999000D01*
X121279000Y-111825000D02*
X121279000Y-104955000D01*
X121319000Y-111867000D02*
X121319000Y-104913000D01*
X121359000Y-107209000D02*
X121359000Y-104872000D01*
X121359000Y-111908000D02*
X121359000Y-109571000D01*
X121399000Y-107209000D02*
X121399000Y-104831000D01*
X121399000Y-111949000D02*
X121399000Y-109571000D01*
X121439000Y-107209000D02*
X121439000Y-104792000D01*
X121439000Y-111988000D02*
X121439000Y-109571000D01*
X121479000Y-107209000D02*
X121479000Y-104753000D01*
X121479000Y-112027000D02*
X121479000Y-109571000D01*
X121519000Y-107209000D02*
X121519000Y-104715000D01*
X121519000Y-112065000D02*
X121519000Y-109571000D01*
X121559000Y-107209000D02*
X121559000Y-104678000D01*
X121559000Y-112102000D02*
X121559000Y-109571000D01*
X121599000Y-107209000D02*
X121599000Y-104642000D01*
X121599000Y-112138000D02*
X121599000Y-109571000D01*
X121639000Y-107209000D02*
X121639000Y-104606000D01*
X121639000Y-112174000D02*
X121639000Y-109571000D01*
X121679000Y-107209000D02*
X121679000Y-104571000D01*
X121679000Y-112209000D02*
X121679000Y-109571000D01*
X121719000Y-107209000D02*
X121719000Y-104537000D01*
X121719000Y-112243000D02*
X121719000Y-109571000D01*
X121759000Y-107209000D02*
X121759000Y-104504000D01*
X121759000Y-112276000D02*
X121759000Y-109571000D01*
X121799000Y-107209000D02*
X121799000Y-104471000D01*
X121799000Y-112309000D02*
X121799000Y-109571000D01*
X121839000Y-107209000D02*
X121839000Y-104439000D01*
X121839000Y-112341000D02*
X121839000Y-109571000D01*
X121879000Y-107209000D02*
X121879000Y-104408000D01*
X121879000Y-112372000D02*
X121879000Y-109571000D01*
X121919000Y-107209000D02*
X121919000Y-104377000D01*
X121919000Y-112403000D02*
X121919000Y-109571000D01*
X121959000Y-107209000D02*
X121959000Y-104347000D01*
X121959000Y-112433000D02*
X121959000Y-109571000D01*
X121999000Y-107209000D02*
X121999000Y-104318000D01*
X121999000Y-112462000D02*
X121999000Y-109571000D01*
X122039000Y-107209000D02*
X122039000Y-104289000D01*
X122039000Y-112491000D02*
X122039000Y-109571000D01*
X122079000Y-107209000D02*
X122079000Y-104260000D01*
X122079000Y-112520000D02*
X122079000Y-109571000D01*
X122119000Y-107209000D02*
X122119000Y-104233000D01*
X122119000Y-112547000D02*
X122119000Y-109571000D01*
X122159000Y-107209000D02*
X122159000Y-104205000D01*
X122159000Y-112575000D02*
X122159000Y-109571000D01*
X122199000Y-107209000D02*
X122199000Y-104179000D01*
X122199000Y-112601000D02*
X122199000Y-109571000D01*
X122239000Y-107209000D02*
X122239000Y-104153000D01*
X122239000Y-112627000D02*
X122239000Y-109571000D01*
X122279000Y-107209000D02*
X122279000Y-104127000D01*
X122279000Y-112653000D02*
X122279000Y-109571000D01*
X122319000Y-107209000D02*
X122319000Y-104102000D01*
X122319000Y-112678000D02*
X122319000Y-109571000D01*
X122359000Y-107209000D02*
X122359000Y-104078000D01*
X122359000Y-112702000D02*
X122359000Y-109571000D01*
X122399000Y-107209000D02*
X122399000Y-104054000D01*
X122399000Y-112726000D02*
X122399000Y-109571000D01*
X122439000Y-107209000D02*
X122439000Y-104030000D01*
X122439000Y-112750000D02*
X122439000Y-109571000D01*
X122479000Y-107209000D02*
X122479000Y-104007000D01*
X122479000Y-112773000D02*
X122479000Y-109571000D01*
X122519000Y-107209000D02*
X122519000Y-103985000D01*
X122519000Y-112795000D02*
X122519000Y-109571000D01*
X122559000Y-107209000D02*
X122559000Y-103962000D01*
X122559000Y-112818000D02*
X122559000Y-109571000D01*
X122599000Y-107209000D02*
X122599000Y-103941000D01*
X122599000Y-112839000D02*
X122599000Y-109571000D01*
X122639000Y-107209000D02*
X122639000Y-103920000D01*
X122639000Y-112860000D02*
X122639000Y-109571000D01*
X122679000Y-107209000D02*
X122679000Y-103899000D01*
X122679000Y-112881000D02*
X122679000Y-109571000D01*
X122719000Y-107209000D02*
X122719000Y-103879000D01*
X122719000Y-112901000D02*
X122719000Y-109571000D01*
X122759000Y-107209000D02*
X122759000Y-103859000D01*
X122759000Y-112921000D02*
X122759000Y-109571000D01*
X122799000Y-107209000D02*
X122799000Y-103840000D01*
X122799000Y-112940000D02*
X122799000Y-109571000D01*
X122839000Y-107209000D02*
X122839000Y-103821000D01*
X122839000Y-112959000D02*
X122839000Y-109571000D01*
X122879000Y-107209000D02*
X122879000Y-103802000D01*
X122879000Y-112978000D02*
X122879000Y-109571000D01*
X122919000Y-107209000D02*
X122919000Y-103784000D01*
X122919000Y-112996000D02*
X122919000Y-109571000D01*
X122959000Y-107209000D02*
X122959000Y-103766000D01*
X122959000Y-113014000D02*
X122959000Y-109571000D01*
X122999000Y-107209000D02*
X122999000Y-103749000D01*
X122999000Y-113031000D02*
X122999000Y-109571000D01*
X123039000Y-107209000D02*
X123039000Y-103732000D01*
X123039000Y-113048000D02*
X123039000Y-109571000D01*
X123079000Y-107209000D02*
X123079000Y-103716000D01*
X123079000Y-113064000D02*
X123079000Y-109571000D01*
X123119000Y-107209000D02*
X123119000Y-103699000D01*
X123119000Y-113081000D02*
X123119000Y-109571000D01*
X123159000Y-107209000D02*
X123159000Y-103684000D01*
X123159000Y-113096000D02*
X123159000Y-109571000D01*
X123199000Y-107209000D02*
X123199000Y-103668000D01*
X123199000Y-113112000D02*
X123199000Y-109571000D01*
X123239000Y-107209000D02*
X123239000Y-103653000D01*
X123239000Y-113127000D02*
X123239000Y-109571000D01*
X123279000Y-107209000D02*
X123279000Y-103639000D01*
X123279000Y-113141000D02*
X123279000Y-109571000D01*
X123319000Y-107209000D02*
X123319000Y-103625000D01*
X123319000Y-113155000D02*
X123319000Y-109571000D01*
X123359000Y-107209000D02*
X123359000Y-103611000D01*
X123359000Y-113169000D02*
X123359000Y-109571000D01*
X123399000Y-107209000D02*
X123399000Y-103598000D01*
X123399000Y-113182000D02*
X123399000Y-109571000D01*
X123439000Y-107209000D02*
X123439000Y-103584000D01*
X123439000Y-113196000D02*
X123439000Y-109571000D01*
X123479000Y-107209000D02*
X123479000Y-103572000D01*
X123479000Y-113208000D02*
X123479000Y-109571000D01*
X123519000Y-107209000D02*
X123519000Y-103559000D01*
X123519000Y-113221000D02*
X123519000Y-109571000D01*
X123559000Y-107209000D02*
X123559000Y-103547000D01*
X123559000Y-113233000D02*
X123559000Y-109571000D01*
X123599000Y-107209000D02*
X123599000Y-103536000D01*
X123599000Y-113244000D02*
X123599000Y-109571000D01*
X123639000Y-107209000D02*
X123639000Y-103525000D01*
X123639000Y-113255000D02*
X123639000Y-109571000D01*
X123679000Y-107209000D02*
X123679000Y-103514000D01*
X123679000Y-113266000D02*
X123679000Y-109571000D01*
X123719000Y-113277000D02*
X123719000Y-103503000D01*
X123759000Y-113287000D02*
X123759000Y-103493000D01*
X123799000Y-113297000D02*
X123799000Y-103483000D01*
X123839000Y-113307000D02*
X123839000Y-103473000D01*
X123879000Y-113316000D02*
X123879000Y-103464000D01*
X123919000Y-113325000D02*
X123919000Y-103455000D01*
X123959000Y-113333000D02*
X123959000Y-103447000D01*
X123999000Y-113341000D02*
X123999000Y-103439000D01*
X124039000Y-113349000D02*
X124039000Y-103431000D01*
X124079000Y-113357000D02*
X124079000Y-103423000D01*
X124119000Y-113364000D02*
X124119000Y-103416000D01*
X124159000Y-113371000D02*
X124159000Y-103409000D01*
X124199000Y-113377000D02*
X124199000Y-103403000D01*
X124239000Y-113383000D02*
X124239000Y-103397000D01*
X124279000Y-113389000D02*
X124279000Y-103391000D01*
X124320000Y-113395000D02*
X124320000Y-103385000D01*
X124360000Y-113400000D02*
X124360000Y-103380000D01*
X124400000Y-113405000D02*
X124400000Y-103375000D01*
X124440000Y-113410000D02*
X124440000Y-103370000D01*
X124480000Y-113414000D02*
X124480000Y-103366000D01*
X124520000Y-113418000D02*
X124520000Y-103362000D01*
X124560000Y-113421000D02*
X124560000Y-103359000D01*
X124600000Y-113425000D02*
X124600000Y-103355000D01*
X124640000Y-113428000D02*
X124640000Y-103352000D01*
X124680000Y-113430000D02*
X124680000Y-103350000D01*
X124720000Y-113433000D02*
X124720000Y-103347000D01*
X124760000Y-113435000D02*
X124760000Y-103345000D01*
X124800000Y-113437000D02*
X124800000Y-103343000D01*
X124840000Y-113438000D02*
X124840000Y-103342000D01*
X124880000Y-113439000D02*
X124880000Y-103341000D01*
X124920000Y-113440000D02*
X124920000Y-103340000D01*
X124960000Y-113440000D02*
X124960000Y-103340000D01*
X125000000Y-113440000D02*
X125000000Y-103340000D01*
X120101563Y-107006736D02*
G75*
G03X120100643Y-109770000I4898437J-1383264D01*
G01*
X120101563Y-107006736D02*
G75*
G02X129899357Y-107010000I4898437J-1383264D01*
G01*
X120101563Y-109773264D02*
G75*
G03X129899357Y-109770000I4898437J1383264D01*
G01*
X84535000Y-107047000D02*
X94185000Y-107047000D01*
X89360000Y-99610000D02*
X89360000Y-100510000D01*
X89360000Y-109150000D02*
X89360000Y-108250000D01*
X84535000Y-100510000D02*
X84535000Y-108250000D01*
X94185000Y-100510000D02*
X84535000Y-100510000D01*
X94185000Y-108250000D02*
X94185000Y-100510000D01*
X84535000Y-108250000D02*
X94185000Y-108250000D01*
X149710000Y-58480000D02*
X146590000Y-58480000D01*
X146590000Y-58480000D02*
X146590000Y-62260000D01*
X146590000Y-62260000D02*
X146960000Y-62260000D01*
X146960000Y-62260000D02*
X146960000Y-65120000D01*
X146960000Y-65120000D02*
X149710000Y-65120000D01*
X149710000Y-58480000D02*
X152830000Y-58480000D01*
X152830000Y-58480000D02*
X152830000Y-62260000D01*
X152830000Y-62260000D02*
X152460000Y-62260000D01*
X152460000Y-62260000D02*
X152460000Y-65120000D01*
X152460000Y-65120000D02*
X149710000Y-65120000D01*
X146240000Y-60370000D02*
X145640000Y-60670000D01*
X145640000Y-60670000D02*
X145640000Y-60070000D01*
X145640000Y-60070000D02*
X146240000Y-60370000D01*
X79790000Y-74720000D02*
X79490000Y-75320000D01*
X79190000Y-74720000D02*
X79790000Y-74720000D01*
X79490000Y-75320000D02*
X79190000Y-74720000D01*
X74740000Y-84040000D02*
X74740000Y-81290000D01*
X77600000Y-84040000D02*
X74740000Y-84040000D01*
X77600000Y-86910000D02*
X77600000Y-84040000D01*
X81380000Y-86910000D02*
X77600000Y-86910000D01*
X81380000Y-81290000D02*
X81380000Y-86910000D01*
X74740000Y-78540000D02*
X74740000Y-81290000D01*
X77600000Y-78540000D02*
X74740000Y-78540000D01*
X77600000Y-75670000D02*
X77600000Y-78540000D01*
X81380000Y-75670000D02*
X77600000Y-75670000D01*
X81380000Y-81290000D02*
X81380000Y-75670000D01*
X91200000Y-60000000D02*
X91800000Y-60300000D01*
X91200000Y-60600000D02*
X91200000Y-60000000D01*
X91800000Y-60300000D02*
X91200000Y-60600000D01*
X98020000Y-65050000D02*
X95270000Y-65050000D01*
X98020000Y-62190000D02*
X98020000Y-65050000D01*
X98390000Y-62190000D02*
X98020000Y-62190000D01*
X98390000Y-58410000D02*
X98390000Y-62190000D01*
X95270000Y-58410000D02*
X98390000Y-58410000D01*
X92520000Y-65050000D02*
X95270000Y-65050000D01*
X92520000Y-62190000D02*
X92520000Y-65050000D01*
X92150000Y-62190000D02*
X92520000Y-62190000D01*
X92150000Y-58410000D02*
X92150000Y-62190000D01*
X95270000Y-58410000D02*
X92150000Y-58410000D01*
X166200000Y-70490000D02*
X165900000Y-71090000D01*
X165600000Y-70490000D02*
X166200000Y-70490000D01*
X165900000Y-71090000D02*
X165600000Y-70490000D01*
X161150000Y-77310000D02*
X161150000Y-74560000D01*
X164010000Y-77310000D02*
X161150000Y-77310000D01*
X164010000Y-77680000D02*
X164010000Y-77310000D01*
X167790000Y-77680000D02*
X164010000Y-77680000D01*
X167790000Y-74560000D02*
X167790000Y-77680000D01*
X161150000Y-71810000D02*
X161150000Y-74560000D01*
X164010000Y-71810000D02*
X161150000Y-71810000D01*
X164010000Y-71440000D02*
X164010000Y-71810000D01*
X167790000Y-71440000D02*
X164010000Y-71440000D01*
X167790000Y-74560000D02*
X167790000Y-71440000D01*
X160990000Y-90790000D02*
X160990000Y-89050000D01*
X162730000Y-90790000D02*
X160990000Y-90790000D01*
X161230000Y-81350000D02*
X163230000Y-81350000D01*
X161230000Y-84150000D02*
X161230000Y-81350000D01*
X161230000Y-90550000D02*
X161230000Y-87750000D01*
X175830000Y-90550000D02*
X161230000Y-90550000D01*
X175830000Y-81350000D02*
X175830000Y-90550000D01*
X166830000Y-81350000D02*
X175830000Y-81350000D01*
X166810000Y-58210000D02*
X163690000Y-58210000D01*
X163690000Y-58210000D02*
X163690000Y-61990000D01*
X163690000Y-61990000D02*
X164060000Y-61990000D01*
X164060000Y-61990000D02*
X164060000Y-64850000D01*
X164060000Y-64850000D02*
X166810000Y-64850000D01*
X166810000Y-58210000D02*
X169930000Y-58210000D01*
X169930000Y-58210000D02*
X169930000Y-61990000D01*
X169930000Y-61990000D02*
X169560000Y-61990000D01*
X169560000Y-61990000D02*
X169560000Y-64850000D01*
X169560000Y-64850000D02*
X166810000Y-64850000D01*
X163340000Y-60100000D02*
X162740000Y-60400000D01*
X162740000Y-60400000D02*
X162740000Y-59800000D01*
X162740000Y-59800000D02*
X163340000Y-60100000D01*
D12*
X165840000Y-112580000D02*
X165140000Y-99780000D01*
X169840000Y-112580000D02*
X169140000Y-99780000D01*
X168840000Y-112580000D02*
X168140000Y-99780000D01*
X166840000Y-112580000D02*
X166140000Y-99780000D01*
X167840000Y-112580000D02*
X167140000Y-99780000D01*
X171840000Y-112580000D02*
X171140000Y-99780000D01*
X170840000Y-112580000D02*
X170140000Y-99780000D01*
X172840000Y-112580000D02*
X172140000Y-99780000D01*
X173840000Y-112580000D02*
X173140000Y-99780000D01*
X173840000Y-99780000D02*
X164640000Y-99780000D01*
X173840000Y-112580000D02*
X164640000Y-112580000D01*
X185840000Y-101380000D02*
X173840000Y-101380000D01*
X185840000Y-110980000D02*
X173840000Y-110980000D01*
X185840000Y-110980000D02*
X185840000Y-101380000D01*
X173840000Y-112580000D02*
X173840000Y-99780000D01*
X164640000Y-98780000D02*
X150940000Y-98780000D01*
X150940000Y-113580000D02*
X164640000Y-113580000D01*
X150940000Y-113580000D02*
X150940000Y-98780000D01*
X164640000Y-113580000D02*
X164640000Y-98780000D01*
D10*
X158410000Y-58380000D02*
X155290000Y-58380000D01*
X155290000Y-58380000D02*
X155290000Y-62160000D01*
X155290000Y-62160000D02*
X155660000Y-62160000D01*
X155660000Y-62160000D02*
X155660000Y-65020000D01*
X155660000Y-65020000D02*
X158410000Y-65020000D01*
X158410000Y-58380000D02*
X161530000Y-58380000D01*
X161530000Y-58380000D02*
X161530000Y-62160000D01*
X161530000Y-62160000D02*
X161160000Y-62160000D01*
X161160000Y-62160000D02*
X161160000Y-65020000D01*
X161160000Y-65020000D02*
X158410000Y-65020000D01*
X154940000Y-60270000D02*
X154340000Y-60570000D01*
X154340000Y-60570000D02*
X154340000Y-59970000D01*
X154340000Y-59970000D02*
X154940000Y-60270000D01*
X75190000Y-101070000D02*
X75490000Y-100470000D01*
X75790000Y-101070000D02*
X75190000Y-101070000D01*
X75490000Y-100470000D02*
X75790000Y-101070000D01*
X80240000Y-93000000D02*
X80240000Y-95750000D01*
X77380000Y-93000000D02*
X80240000Y-93000000D01*
X77380000Y-91380000D02*
X77380000Y-93000000D01*
X73600000Y-91380000D02*
X77380000Y-91380000D01*
X73600000Y-95750000D02*
X73600000Y-91380000D01*
X80240000Y-98500000D02*
X80240000Y-95750000D01*
X77380000Y-98500000D02*
X80240000Y-98500000D01*
X77380000Y-100120000D02*
X77380000Y-98500000D01*
X73600000Y-100120000D02*
X77380000Y-100120000D01*
X73600000Y-95750000D02*
X73600000Y-100120000D01*
X74990000Y-110260000D02*
X75290000Y-109660000D01*
X75590000Y-110260000D02*
X74990000Y-110260000D01*
X75290000Y-109660000D02*
X75590000Y-110260000D01*
X80040000Y-103440000D02*
X80040000Y-106190000D01*
X77180000Y-103440000D02*
X80040000Y-103440000D01*
X77180000Y-103070000D02*
X77180000Y-103440000D01*
X73400000Y-103070000D02*
X77180000Y-103070000D01*
X73400000Y-106190000D02*
X73400000Y-103070000D01*
X80040000Y-108940000D02*
X80040000Y-106190000D01*
X77180000Y-108940000D02*
X80040000Y-108940000D01*
X77180000Y-109310000D02*
X77180000Y-108940000D01*
X73400000Y-109310000D02*
X77180000Y-109310000D01*
X73400000Y-106190000D02*
X73400000Y-109310000D01*
X117610000Y-130640000D02*
X125730000Y-130640000D01*
X125730000Y-130640000D02*
X125730000Y-126860000D01*
X125730000Y-126860000D02*
X120360000Y-126860000D01*
X120360000Y-126860000D02*
X120360000Y-124000000D01*
X120360000Y-124000000D02*
X117610000Y-124000000D01*
X117610000Y-130640000D02*
X109490000Y-130640000D01*
X109490000Y-130640000D02*
X109490000Y-126860000D01*
X109490000Y-126860000D02*
X114860000Y-126860000D01*
X114860000Y-126860000D02*
X114860000Y-124000000D01*
X114860000Y-124000000D02*
X117610000Y-124000000D01*
X126080000Y-128750000D02*
X126680000Y-128450000D01*
X126680000Y-128450000D02*
X126680000Y-129050000D01*
X126680000Y-129050000D02*
X126080000Y-128750000D01*
X144850000Y-129220000D02*
X144250000Y-128920000D01*
X144850000Y-128620000D02*
X144850000Y-129220000D01*
X144250000Y-128920000D02*
X144850000Y-128620000D01*
X133030000Y-124170000D02*
X135780000Y-124170000D01*
X133030000Y-127030000D02*
X133030000Y-124170000D01*
X127660000Y-127030000D02*
X133030000Y-127030000D01*
X127660000Y-130810000D02*
X127660000Y-127030000D01*
X135780000Y-130810000D02*
X127660000Y-130810000D01*
X138530000Y-124170000D02*
X135780000Y-124170000D01*
X138530000Y-127030000D02*
X138530000Y-124170000D01*
X143900000Y-127030000D02*
X138530000Y-127030000D01*
X143900000Y-130810000D02*
X143900000Y-127030000D01*
X135780000Y-130810000D02*
X143900000Y-130810000D01*
X99100000Y-60110000D02*
X99700000Y-60410000D01*
X99100000Y-60710000D02*
X99100000Y-60110000D01*
X99700000Y-60410000D02*
X99100000Y-60710000D01*
X113420000Y-65160000D02*
X110670000Y-65160000D01*
X113420000Y-62300000D02*
X113420000Y-65160000D01*
X121290000Y-62300000D02*
X113420000Y-62300000D01*
X121290000Y-58520000D02*
X121290000Y-62300000D01*
X110670000Y-58520000D02*
X121290000Y-58520000D01*
X107920000Y-65160000D02*
X110670000Y-65160000D01*
X107920000Y-62300000D02*
X107920000Y-65160000D01*
X100050000Y-62300000D02*
X107920000Y-62300000D01*
X100050000Y-58520000D02*
X100050000Y-62300000D01*
X110670000Y-58520000D02*
X100050000Y-58520000D01*
X121950000Y-60040000D02*
X122550000Y-60340000D01*
X121950000Y-60640000D02*
X121950000Y-60040000D01*
X122550000Y-60340000D02*
X121950000Y-60640000D01*
X136270000Y-65090000D02*
X133520000Y-65090000D01*
X136270000Y-62230000D02*
X136270000Y-65090000D01*
X144140000Y-62230000D02*
X136270000Y-62230000D01*
X144140000Y-58450000D02*
X144140000Y-62230000D01*
X133520000Y-58450000D02*
X144140000Y-58450000D01*
X130770000Y-65090000D02*
X133520000Y-65090000D01*
X130770000Y-62230000D02*
X130770000Y-65090000D01*
X122900000Y-62230000D02*
X130770000Y-62230000D01*
X122900000Y-58450000D02*
X122900000Y-62230000D01*
X133520000Y-58450000D02*
X122900000Y-58450000D01*
X109680000Y-104099000D02*
X111190000Y-104099000D01*
X109680000Y-107800000D02*
X111190000Y-107800000D01*
X111190000Y-111070000D02*
X111190000Y-100830000D01*
X109680000Y-100830000D02*
X114321000Y-100830000D01*
X109680000Y-111070000D02*
X114321000Y-111070000D01*
X114321000Y-111070000D02*
X114321000Y-100830000D01*
X109680000Y-111070000D02*
X109680000Y-100830000D01*
X79990000Y-72380000D02*
X79990000Y-71570000D01*
X79990000Y-61640000D02*
X79990000Y-62450000D01*
X81650000Y-71570000D02*
X81650000Y-62450000D01*
X78330000Y-71570000D02*
X81650000Y-71570000D01*
X78330000Y-62450000D02*
X78330000Y-71570000D01*
X81650000Y-62450000D02*
X78330000Y-62450000D01*
X82950000Y-72490000D02*
X83430000Y-72490000D01*
X82950000Y-62470000D02*
X82950000Y-72490000D01*
X83430000Y-62470000D02*
X82950000Y-62470000D01*
X86670000Y-72490000D02*
X86190000Y-72490000D01*
X86670000Y-62470000D02*
X86670000Y-72490000D01*
X86190000Y-62470000D02*
X86670000Y-62470000D01*
X123590000Y-73280000D02*
X123590000Y-73760000D01*
X133610000Y-73280000D02*
X123590000Y-73280000D01*
X133610000Y-73760000D02*
X133610000Y-73280000D01*
X123590000Y-77000000D02*
X123590000Y-76520000D01*
X133610000Y-77000000D02*
X123590000Y-77000000D01*
X133610000Y-76520000D02*
X133610000Y-77000000D01*
X140580000Y-108950000D02*
X140100000Y-108950000D01*
X140100000Y-108950000D02*
X140100000Y-98930000D01*
X140100000Y-98930000D02*
X140580000Y-98930000D01*
X143340000Y-108950000D02*
X143820000Y-108950000D01*
X143820000Y-108950000D02*
X143820000Y-98930000D01*
X143820000Y-98930000D02*
X143340000Y-98930000D01*
X114660000Y-86900000D02*
X114180000Y-86900000D01*
X114180000Y-86900000D02*
X114180000Y-76880000D01*
X114180000Y-76880000D02*
X114660000Y-76880000D01*
X117420000Y-86900000D02*
X117900000Y-86900000D01*
X117900000Y-86900000D02*
X117900000Y-76880000D01*
X117900000Y-76880000D02*
X117420000Y-76880000D01*
X110530000Y-90730000D02*
X110530000Y-91210000D01*
X120550000Y-90730000D02*
X110530000Y-90730000D01*
X120550000Y-91210000D02*
X120550000Y-90730000D01*
X110530000Y-94450000D02*
X110530000Y-93970000D01*
X120550000Y-94450000D02*
X110530000Y-94450000D01*
X120550000Y-93970000D02*
X120550000Y-94450000D01*
X132310000Y-114660000D02*
X132310000Y-107040000D01*
X138650000Y-107040000D02*
X138650000Y-114660000D01*
X136750000Y-114660000D02*
X136750000Y-107040000D01*
X138650000Y-114660000D02*
X132310000Y-114660000D01*
X138650000Y-107040000D02*
X132310000Y-107040000D01*
D13*
X156902380Y-82783333D02*
X157616666Y-82783333D01*
X157759523Y-82830952D01*
X157854761Y-82926190D01*
X157902380Y-83069047D01*
X157902380Y-83164285D01*
X157235714Y-81878571D02*
X157902380Y-81878571D01*
X156854761Y-82116666D02*
X157569047Y-82354761D01*
X157569047Y-81735714D01*
X123672380Y-94521904D02*
X124481904Y-94521904D01*
X124577142Y-94474285D01*
X124624761Y-94426666D01*
X124672380Y-94331428D01*
X124672380Y-94140952D01*
X124624761Y-94045714D01*
X124577142Y-93998095D01*
X124481904Y-93950476D01*
X123672380Y-93950476D01*
X124672380Y-92950476D02*
X124672380Y-93521904D01*
X124672380Y-93236190D02*
X123672380Y-93236190D01*
X123815238Y-93331428D01*
X123910476Y-93426666D01*
X123958095Y-93521904D01*
X92262380Y-81663333D02*
X92976666Y-81663333D01*
X93119523Y-81710952D01*
X93214761Y-81806190D01*
X93262380Y-81949047D01*
X93262380Y-82044285D01*
X93262380Y-80663333D02*
X93262380Y-81234761D01*
X93262380Y-80949047D02*
X92262380Y-80949047D01*
X92405238Y-81044285D01*
X92500476Y-81139523D01*
X92548095Y-81234761D01*
D14*
X79924428Y-65146857D02*
X80142142Y-65219428D01*
X80505000Y-65219428D01*
X80650142Y-65146857D01*
X80722714Y-65074285D01*
X80795285Y-64929142D01*
X80795285Y-64784000D01*
X80722714Y-64638857D01*
X80650142Y-64566285D01*
X80505000Y-64493714D01*
X80214714Y-64421142D01*
X80069571Y-64348571D01*
X79997000Y-64276000D01*
X79924428Y-64130857D01*
X79924428Y-63985714D01*
X79997000Y-63840571D01*
X80069571Y-63768000D01*
X80214714Y-63695428D01*
X80577571Y-63695428D01*
X80795285Y-63768000D01*
X81448428Y-65219428D02*
X81448428Y-63695428D01*
X81448428Y-64421142D02*
X82319285Y-64421142D01*
X82319285Y-65219428D02*
X82319285Y-63695428D01*
X83045000Y-65219428D02*
X83045000Y-63695428D01*
X83770714Y-64421142D02*
X84278714Y-64421142D01*
X84496428Y-65219428D02*
X83770714Y-65219428D01*
X83770714Y-63695428D01*
X84496428Y-63695428D01*
X85875285Y-65219428D02*
X85149571Y-65219428D01*
X85149571Y-63695428D01*
X86383285Y-65219428D02*
X86383285Y-63695428D01*
X86746142Y-63695428D01*
X86963857Y-63768000D01*
X87109000Y-63913142D01*
X87181571Y-64058285D01*
X87254142Y-64348571D01*
X87254142Y-64566285D01*
X87181571Y-64856571D01*
X87109000Y-65001714D01*
X86963857Y-65146857D01*
X86746142Y-65219428D01*
X86383285Y-65219428D01*
X88705571Y-65219428D02*
X87834714Y-65219428D01*
X88270142Y-65219428D02*
X88270142Y-63695428D01*
X88125000Y-63913142D01*
X87979857Y-64058285D01*
X87834714Y-64130857D01*
D13*
X150476666Y-122312380D02*
X150143333Y-121836190D01*
X149905238Y-122312380D02*
X149905238Y-121312380D01*
X150286190Y-121312380D01*
X150381428Y-121360000D01*
X150429047Y-121407619D01*
X150476666Y-121502857D01*
X150476666Y-121645714D01*
X150429047Y-121740952D01*
X150381428Y-121788571D01*
X150286190Y-121836190D01*
X149905238Y-121836190D01*
X150905238Y-121788571D02*
X151238571Y-121788571D01*
X151381428Y-122312380D02*
X150905238Y-122312380D01*
X150905238Y-121312380D01*
X151381428Y-121312380D01*
X152143333Y-121788571D02*
X151810000Y-121788571D01*
X151810000Y-122312380D02*
X151810000Y-121312380D01*
X152286190Y-121312380D01*
X152810000Y-121312380D02*
X152810000Y-121550476D01*
X152571904Y-121455238D02*
X152810000Y-121550476D01*
X153048095Y-121455238D01*
X152667142Y-121740952D02*
X152810000Y-121550476D01*
X152952857Y-121740952D01*
X153571904Y-121312380D02*
X153571904Y-121550476D01*
X153333809Y-121455238D02*
X153571904Y-121550476D01*
X153810000Y-121455238D01*
X153429047Y-121740952D02*
X153571904Y-121550476D01*
X153714761Y-121740952D01*
D15*
X111850476Y-70717142D02*
X110898095Y-70717142D01*
X110898095Y-67717142D01*
X112802857Y-70717142D02*
X112612380Y-70574285D01*
X112517142Y-70431428D01*
X112421904Y-70145714D01*
X112421904Y-69288571D01*
X112517142Y-69002857D01*
X112612380Y-68860000D01*
X112802857Y-68717142D01*
X113088571Y-68717142D01*
X113279047Y-68860000D01*
X113374285Y-69002857D01*
X113469523Y-69288571D01*
X113469523Y-70145714D01*
X113374285Y-70431428D01*
X113279047Y-70574285D01*
X113088571Y-70717142D01*
X112802857Y-70717142D01*
X114136190Y-68717142D02*
X114517142Y-70717142D01*
X114898095Y-69288571D01*
X115279047Y-70717142D01*
X115660000Y-68717142D01*
X118898095Y-70717142D02*
X117945714Y-70717142D01*
X117945714Y-67717142D01*
X120326666Y-70574285D02*
X120136190Y-70717142D01*
X119755238Y-70717142D01*
X119564761Y-70574285D01*
X119469523Y-70288571D01*
X119469523Y-69145714D01*
X119564761Y-68860000D01*
X119755238Y-68717142D01*
X120136190Y-68717142D01*
X120326666Y-68860000D01*
X120421904Y-69145714D01*
X120421904Y-69431428D01*
X119469523Y-69717142D01*
X121088571Y-68717142D02*
X121564761Y-70717142D01*
X122040952Y-68717142D01*
X123564761Y-70574285D02*
X123374285Y-70717142D01*
X122993333Y-70717142D01*
X122802857Y-70574285D01*
X122707619Y-70288571D01*
X122707619Y-69145714D01*
X122802857Y-68860000D01*
X122993333Y-68717142D01*
X123374285Y-68717142D01*
X123564761Y-68860000D01*
X123660000Y-69145714D01*
X123660000Y-69431428D01*
X122707619Y-69717142D01*
X124802857Y-70717142D02*
X124612380Y-70574285D01*
X124517142Y-70288571D01*
X124517142Y-67717142D01*
X126802857Y-67717142D02*
X127945714Y-67717142D01*
X127374285Y-70717142D02*
X127374285Y-67717142D01*
X128612380Y-70717142D02*
X128612380Y-68717142D01*
X128612380Y-69288571D02*
X128707619Y-69002857D01*
X128802857Y-68860000D01*
X128993333Y-68717142D01*
X129183809Y-68717142D01*
X129850476Y-70717142D02*
X129850476Y-68717142D01*
X129850476Y-67717142D02*
X129755238Y-67860000D01*
X129850476Y-68002857D01*
X129945714Y-67860000D01*
X129850476Y-67717142D01*
X129850476Y-68002857D01*
X131660000Y-68717142D02*
X131660000Y-71145714D01*
X131564761Y-71431428D01*
X131469523Y-71574285D01*
X131279047Y-71717142D01*
X130993333Y-71717142D01*
X130802857Y-71574285D01*
X131660000Y-70574285D02*
X131469523Y-70717142D01*
X131088571Y-70717142D01*
X130898095Y-70574285D01*
X130802857Y-70431428D01*
X130707619Y-70145714D01*
X130707619Y-69288571D01*
X130802857Y-69002857D01*
X130898095Y-68860000D01*
X131088571Y-68717142D01*
X131469523Y-68717142D01*
X131660000Y-68860000D01*
X133469523Y-68717142D02*
X133469523Y-71145714D01*
X133374285Y-71431428D01*
X133279047Y-71574285D01*
X133088571Y-71717142D01*
X132802857Y-71717142D01*
X132612380Y-71574285D01*
X133469523Y-70574285D02*
X133279047Y-70717142D01*
X132898095Y-70717142D01*
X132707619Y-70574285D01*
X132612380Y-70431428D01*
X132517142Y-70145714D01*
X132517142Y-69288571D01*
X132612380Y-69002857D01*
X132707619Y-68860000D01*
X132898095Y-68717142D01*
X133279047Y-68717142D01*
X133469523Y-68860000D01*
X135183809Y-70574285D02*
X134993333Y-70717142D01*
X134612380Y-70717142D01*
X134421904Y-70574285D01*
X134326666Y-70288571D01*
X134326666Y-69145714D01*
X134421904Y-68860000D01*
X134612380Y-68717142D01*
X134993333Y-68717142D01*
X135183809Y-68860000D01*
X135279047Y-69145714D01*
X135279047Y-69431428D01*
X134326666Y-69717142D01*
X136136190Y-70717142D02*
X136136190Y-68717142D01*
X136136190Y-69288571D02*
X136231428Y-69002857D01*
X136326666Y-68860000D01*
X136517142Y-68717142D01*
X136707619Y-68717142D01*
D13*
X124833333Y-115057142D02*
X124785714Y-115104761D01*
X124642857Y-115152380D01*
X124547619Y-115152380D01*
X124404761Y-115104761D01*
X124309523Y-115009523D01*
X124261904Y-114914285D01*
X124214285Y-114723809D01*
X124214285Y-114580952D01*
X124261904Y-114390476D01*
X124309523Y-114295238D01*
X124404761Y-114200000D01*
X124547619Y-114152380D01*
X124642857Y-114152380D01*
X124785714Y-114200000D01*
X124833333Y-114247619D01*
X125785714Y-115152380D02*
X125214285Y-115152380D01*
X125500000Y-115152380D02*
X125500000Y-114152380D01*
X125404761Y-114295238D01*
X125309523Y-114390476D01*
X125214285Y-114438095D01*
X83987380Y-105118095D02*
X82987380Y-105118095D01*
X82987380Y-104880000D01*
X83035000Y-104737142D01*
X83130238Y-104641904D01*
X83225476Y-104594285D01*
X83415952Y-104546666D01*
X83558809Y-104546666D01*
X83749285Y-104594285D01*
X83844523Y-104641904D01*
X83939761Y-104737142D01*
X83987380Y-104880000D01*
X83987380Y-105118095D01*
X83987380Y-103594285D02*
X83987380Y-104165714D01*
X83987380Y-103880000D02*
X82987380Y-103880000D01*
X83130238Y-103975238D01*
X83225476Y-104070476D01*
X83273095Y-104165714D01*
X149376666Y-56822380D02*
X149376666Y-57536666D01*
X149329047Y-57679523D01*
X149233809Y-57774761D01*
X149090952Y-57822380D01*
X148995714Y-57822380D01*
X149805238Y-56917619D02*
X149852857Y-56870000D01*
X149948095Y-56822380D01*
X150186190Y-56822380D01*
X150281428Y-56870000D01*
X150329047Y-56917619D01*
X150376666Y-57012857D01*
X150376666Y-57108095D01*
X150329047Y-57250952D01*
X149757619Y-57822380D01*
X150376666Y-57822380D01*
X81942380Y-81623333D02*
X82656666Y-81623333D01*
X82799523Y-81670952D01*
X82894761Y-81766190D01*
X82942380Y-81909047D01*
X82942380Y-82004285D01*
X81942380Y-81242380D02*
X81942380Y-80623333D01*
X82323333Y-80956666D01*
X82323333Y-80813809D01*
X82370952Y-80718571D01*
X82418571Y-80670952D01*
X82513809Y-80623333D01*
X82751904Y-80623333D01*
X82847142Y-80670952D01*
X82894761Y-80718571D01*
X82942380Y-80813809D01*
X82942380Y-81099523D01*
X82894761Y-81194761D01*
X82847142Y-81242380D01*
X94936666Y-56752380D02*
X94936666Y-57466666D01*
X94889047Y-57609523D01*
X94793809Y-57704761D01*
X94650952Y-57752380D01*
X94555714Y-57752380D01*
X95889047Y-56752380D02*
X95412857Y-56752380D01*
X95365238Y-57228571D01*
X95412857Y-57180952D01*
X95508095Y-57133333D01*
X95746190Y-57133333D01*
X95841428Y-57180952D01*
X95889047Y-57228571D01*
X95936666Y-57323809D01*
X95936666Y-57561904D01*
X95889047Y-57657142D01*
X95841428Y-57704761D01*
X95746190Y-57752380D01*
X95508095Y-57752380D01*
X95412857Y-57704761D01*
X95365238Y-57657142D01*
X168352380Y-74893333D02*
X169066666Y-74893333D01*
X169209523Y-74940952D01*
X169304761Y-75036190D01*
X169352380Y-75179047D01*
X169352380Y-75274285D01*
X168352380Y-73988571D02*
X168352380Y-74179047D01*
X168400000Y-74274285D01*
X168447619Y-74321904D01*
X168590476Y-74417142D01*
X168780952Y-74464761D01*
X169161904Y-74464761D01*
X169257142Y-74417142D01*
X169304761Y-74369523D01*
X169352380Y-74274285D01*
X169352380Y-74083809D01*
X169304761Y-73988571D01*
X169257142Y-73940952D01*
X169161904Y-73893333D01*
X168923809Y-73893333D01*
X168828571Y-73940952D01*
X168780952Y-73988571D01*
X168733333Y-74083809D01*
X168733333Y-74274285D01*
X168780952Y-74369523D01*
X168828571Y-74417142D01*
X168923809Y-74464761D01*
X170146666Y-79652380D02*
X170146666Y-80366666D01*
X170099047Y-80509523D01*
X170003809Y-80604761D01*
X169860952Y-80652380D01*
X169765714Y-80652380D01*
X170527619Y-79652380D02*
X171194285Y-79652380D01*
X170765714Y-80652380D01*
X166476666Y-56552380D02*
X166476666Y-57266666D01*
X166429047Y-57409523D01*
X166333809Y-57504761D01*
X166190952Y-57552380D01*
X166095714Y-57552380D01*
X167095714Y-56980952D02*
X167000476Y-56933333D01*
X166952857Y-56885714D01*
X166905238Y-56790476D01*
X166905238Y-56742857D01*
X166952857Y-56647619D01*
X167000476Y-56600000D01*
X167095714Y-56552380D01*
X167286190Y-56552380D01*
X167381428Y-56600000D01*
X167429047Y-56647619D01*
X167476666Y-56742857D01*
X167476666Y-56790476D01*
X167429047Y-56885714D01*
X167381428Y-56933333D01*
X167286190Y-56980952D01*
X167095714Y-56980952D01*
X167000476Y-57028571D01*
X166952857Y-57076190D01*
X166905238Y-57171428D01*
X166905238Y-57361904D01*
X166952857Y-57457142D01*
X167000476Y-57504761D01*
X167095714Y-57552380D01*
X167286190Y-57552380D01*
X167381428Y-57504761D01*
X167429047Y-57457142D01*
X167476666Y-57361904D01*
X167476666Y-57171428D01*
X167429047Y-57076190D01*
X167381428Y-57028571D01*
X167286190Y-56980952D01*
D16*
X149192380Y-106513333D02*
X149906666Y-106513333D01*
X150049523Y-106560952D01*
X150144761Y-106656190D01*
X150192380Y-106799047D01*
X150192380Y-106894285D01*
X150192380Y-105989523D02*
X150192380Y-105799047D01*
X150144761Y-105703809D01*
X150097142Y-105656190D01*
X149954285Y-105560952D01*
X149763809Y-105513333D01*
X149382857Y-105513333D01*
X149287619Y-105560952D01*
X149240000Y-105608571D01*
X149192380Y-105703809D01*
X149192380Y-105894285D01*
X149240000Y-105989523D01*
X149287619Y-106037142D01*
X149382857Y-106084761D01*
X149620952Y-106084761D01*
X149716190Y-106037142D01*
X149763809Y-105989523D01*
X149811428Y-105894285D01*
X149811428Y-105703809D01*
X149763809Y-105608571D01*
X149716190Y-105560952D01*
X149620952Y-105513333D01*
X148597142Y-110370476D02*
X148644761Y-110418095D01*
X148692380Y-110560952D01*
X148692380Y-110656190D01*
X148644761Y-110799047D01*
X148549523Y-110894285D01*
X148454285Y-110941904D01*
X148263809Y-110989523D01*
X148120952Y-110989523D01*
X147930476Y-110941904D01*
X147835238Y-110894285D01*
X147740000Y-110799047D01*
X147692380Y-110656190D01*
X147692380Y-110560952D01*
X147740000Y-110418095D01*
X147787619Y-110370476D01*
X148692380Y-109799047D02*
X148644761Y-109894285D01*
X148597142Y-109941904D01*
X148501904Y-109989523D01*
X148216190Y-109989523D01*
X148120952Y-109941904D01*
X148073333Y-109894285D01*
X148025714Y-109799047D01*
X148025714Y-109656190D01*
X148073333Y-109560952D01*
X148120952Y-109513333D01*
X148216190Y-109465714D01*
X148501904Y-109465714D01*
X148597142Y-109513333D01*
X148644761Y-109560952D01*
X148692380Y-109656190D01*
X148692380Y-109799047D01*
X148025714Y-109037142D02*
X148692380Y-109037142D01*
X148120952Y-109037142D02*
X148073333Y-108989523D01*
X148025714Y-108894285D01*
X148025714Y-108751428D01*
X148073333Y-108656190D01*
X148168571Y-108608571D01*
X148692380Y-108608571D01*
X148025714Y-108132380D02*
X148692380Y-108132380D01*
X148120952Y-108132380D02*
X148073333Y-108084761D01*
X148025714Y-107989523D01*
X148025714Y-107846666D01*
X148073333Y-107751428D01*
X148168571Y-107703809D01*
X148692380Y-107703809D01*
X148787619Y-107465714D02*
X148787619Y-106703809D01*
X148597142Y-105894285D02*
X148644761Y-105941904D01*
X148692380Y-106084761D01*
X148692380Y-106180000D01*
X148644761Y-106322857D01*
X148549523Y-106418095D01*
X148454285Y-106465714D01*
X148263809Y-106513333D01*
X148120952Y-106513333D01*
X147930476Y-106465714D01*
X147835238Y-106418095D01*
X147740000Y-106322857D01*
X147692380Y-106180000D01*
X147692380Y-106084761D01*
X147740000Y-105941904D01*
X147787619Y-105894285D01*
X148692380Y-105322857D02*
X148644761Y-105418095D01*
X148597142Y-105465714D01*
X148501904Y-105513333D01*
X148216190Y-105513333D01*
X148120952Y-105465714D01*
X148073333Y-105418095D01*
X148025714Y-105322857D01*
X148025714Y-105180000D01*
X148073333Y-105084761D01*
X148120952Y-105037142D01*
X148216190Y-104989523D01*
X148501904Y-104989523D01*
X148597142Y-105037142D01*
X148644761Y-105084761D01*
X148692380Y-105180000D01*
X148692380Y-105322857D01*
X148692380Y-104132380D02*
X148168571Y-104132380D01*
X148073333Y-104180000D01*
X148025714Y-104275238D01*
X148025714Y-104465714D01*
X148073333Y-104560952D01*
X148644761Y-104132380D02*
X148692380Y-104227619D01*
X148692380Y-104465714D01*
X148644761Y-104560952D01*
X148549523Y-104608571D01*
X148454285Y-104608571D01*
X148359047Y-104560952D01*
X148311428Y-104465714D01*
X148311428Y-104227619D01*
X148263809Y-104132380D01*
X148692380Y-103751428D02*
X148025714Y-103227619D01*
X148025714Y-103751428D02*
X148692380Y-103227619D01*
X148692380Y-102846666D02*
X148025714Y-102846666D01*
X147692380Y-102846666D02*
X147740000Y-102894285D01*
X147787619Y-102846666D01*
X147740000Y-102799047D01*
X147692380Y-102846666D01*
X147787619Y-102846666D01*
X148692380Y-101941904D02*
X148168571Y-101941904D01*
X148073333Y-101989523D01*
X148025714Y-102084761D01*
X148025714Y-102275238D01*
X148073333Y-102370476D01*
X148644761Y-101941904D02*
X148692380Y-102037142D01*
X148692380Y-102275238D01*
X148644761Y-102370476D01*
X148549523Y-102418095D01*
X148454285Y-102418095D01*
X148359047Y-102370476D01*
X148311428Y-102275238D01*
X148311428Y-102037142D01*
X148263809Y-101941904D01*
X148692380Y-101322857D02*
X148644761Y-101418095D01*
X148549523Y-101465714D01*
X147692380Y-101465714D01*
D13*
X157600476Y-56722380D02*
X157600476Y-57436666D01*
X157552857Y-57579523D01*
X157457619Y-57674761D01*
X157314761Y-57722380D01*
X157219523Y-57722380D01*
X158600476Y-57722380D02*
X158029047Y-57722380D01*
X158314761Y-57722380D02*
X158314761Y-56722380D01*
X158219523Y-56865238D01*
X158124285Y-56960476D01*
X158029047Y-57008095D01*
X159219523Y-56722380D02*
X159314761Y-56722380D01*
X159410000Y-56770000D01*
X159457619Y-56817619D01*
X159505238Y-56912857D01*
X159552857Y-57103333D01*
X159552857Y-57341428D01*
X159505238Y-57531904D01*
X159457619Y-57627142D01*
X159410000Y-57674761D01*
X159314761Y-57722380D01*
X159219523Y-57722380D01*
X159124285Y-57674761D01*
X159076666Y-57627142D01*
X159029047Y-57531904D01*
X158981428Y-57341428D01*
X158981428Y-57103333D01*
X159029047Y-56912857D01*
X159076666Y-56817619D01*
X159124285Y-56770000D01*
X159219523Y-56722380D01*
X71942380Y-96559523D02*
X72656666Y-96559523D01*
X72799523Y-96607142D01*
X72894761Y-96702380D01*
X72942380Y-96845238D01*
X72942380Y-96940476D01*
X72942380Y-95559523D02*
X72942380Y-96130952D01*
X72942380Y-95845238D02*
X71942380Y-95845238D01*
X72085238Y-95940476D01*
X72180476Y-96035714D01*
X72228095Y-96130952D01*
X72942380Y-94607142D02*
X72942380Y-95178571D01*
X72942380Y-94892857D02*
X71942380Y-94892857D01*
X72085238Y-94988095D01*
X72180476Y-95083333D01*
X72228095Y-95178571D01*
X71742380Y-106999523D02*
X72456666Y-106999523D01*
X72599523Y-107047142D01*
X72694761Y-107142380D01*
X72742380Y-107285238D01*
X72742380Y-107380476D01*
X72742380Y-105999523D02*
X72742380Y-106570952D01*
X72742380Y-106285238D02*
X71742380Y-106285238D01*
X71885238Y-106380476D01*
X71980476Y-106475714D01*
X72028095Y-106570952D01*
X71837619Y-105618571D02*
X71790000Y-105570952D01*
X71742380Y-105475714D01*
X71742380Y-105237619D01*
X71790000Y-105142380D01*
X71837619Y-105094761D01*
X71932857Y-105047142D01*
X72028095Y-105047142D01*
X72170952Y-105094761D01*
X72742380Y-105666190D01*
X72742380Y-105047142D01*
X116871904Y-132202380D02*
X116871904Y-131202380D01*
X117252857Y-131202380D01*
X117348095Y-131250000D01*
X117395714Y-131297619D01*
X117443333Y-131392857D01*
X117443333Y-131535714D01*
X117395714Y-131630952D01*
X117348095Y-131678571D01*
X117252857Y-131726190D01*
X116871904Y-131726190D01*
X118395714Y-132202380D02*
X117824285Y-132202380D01*
X118110000Y-132202380D02*
X118110000Y-131202380D01*
X118014761Y-131345238D01*
X117919523Y-131440476D01*
X117824285Y-131488095D01*
X135041904Y-132372380D02*
X135041904Y-131372380D01*
X135422857Y-131372380D01*
X135518095Y-131420000D01*
X135565714Y-131467619D01*
X135613333Y-131562857D01*
X135613333Y-131705714D01*
X135565714Y-131800952D01*
X135518095Y-131848571D01*
X135422857Y-131896190D01*
X135041904Y-131896190D01*
X135994285Y-131467619D02*
X136041904Y-131420000D01*
X136137142Y-131372380D01*
X136375238Y-131372380D01*
X136470476Y-131420000D01*
X136518095Y-131467619D01*
X136565714Y-131562857D01*
X136565714Y-131658095D01*
X136518095Y-131800952D01*
X135946666Y-132372380D01*
X136565714Y-132372380D01*
X109931904Y-57862380D02*
X109931904Y-56862380D01*
X110312857Y-56862380D01*
X110408095Y-56910000D01*
X110455714Y-56957619D01*
X110503333Y-57052857D01*
X110503333Y-57195714D01*
X110455714Y-57290952D01*
X110408095Y-57338571D01*
X110312857Y-57386190D01*
X109931904Y-57386190D01*
X110836666Y-56862380D02*
X111455714Y-56862380D01*
X111122380Y-57243333D01*
X111265238Y-57243333D01*
X111360476Y-57290952D01*
X111408095Y-57338571D01*
X111455714Y-57433809D01*
X111455714Y-57671904D01*
X111408095Y-57767142D01*
X111360476Y-57814761D01*
X111265238Y-57862380D01*
X110979523Y-57862380D01*
X110884285Y-57814761D01*
X110836666Y-57767142D01*
X132781904Y-57792380D02*
X132781904Y-56792380D01*
X133162857Y-56792380D01*
X133258095Y-56840000D01*
X133305714Y-56887619D01*
X133353333Y-56982857D01*
X133353333Y-57125714D01*
X133305714Y-57220952D01*
X133258095Y-57268571D01*
X133162857Y-57316190D01*
X132781904Y-57316190D01*
X134210476Y-57125714D02*
X134210476Y-57792380D01*
X133972380Y-56744761D02*
X133734285Y-57459047D01*
X134353333Y-57459047D01*
X109227619Y-106045238D02*
X109180000Y-106140476D01*
X109084761Y-106235714D01*
X108941904Y-106378571D01*
X108894285Y-106473809D01*
X108894285Y-106569047D01*
X109132380Y-106521428D02*
X109084761Y-106616666D01*
X108989523Y-106711904D01*
X108799047Y-106759523D01*
X108465714Y-106759523D01*
X108275238Y-106711904D01*
X108180000Y-106616666D01*
X108132380Y-106521428D01*
X108132380Y-106330952D01*
X108180000Y-106235714D01*
X108275238Y-106140476D01*
X108465714Y-106092857D01*
X108799047Y-106092857D01*
X108989523Y-106140476D01*
X109084761Y-106235714D01*
X109132380Y-106330952D01*
X109132380Y-106521428D01*
X109132380Y-105140476D02*
X109132380Y-105711904D01*
X109132380Y-105426190D02*
X108132380Y-105426190D01*
X108275238Y-105521428D01*
X108370476Y-105616666D01*
X108418095Y-105711904D01*
X83102380Y-67176666D02*
X82626190Y-67510000D01*
X83102380Y-67748095D02*
X82102380Y-67748095D01*
X82102380Y-67367142D01*
X82150000Y-67271904D01*
X82197619Y-67224285D01*
X82292857Y-67176666D01*
X82435714Y-67176666D01*
X82530952Y-67224285D01*
X82578571Y-67271904D01*
X82626190Y-67367142D01*
X82626190Y-67748095D01*
X83102380Y-66224285D02*
X83102380Y-66795714D01*
X83102380Y-66510000D02*
X82102380Y-66510000D01*
X82245238Y-66605238D01*
X82340476Y-66700476D01*
X82388095Y-66795714D01*
X88122380Y-67646666D02*
X87646190Y-67980000D01*
X88122380Y-68218095D02*
X87122380Y-68218095D01*
X87122380Y-67837142D01*
X87170000Y-67741904D01*
X87217619Y-67694285D01*
X87312857Y-67646666D01*
X87455714Y-67646666D01*
X87550952Y-67694285D01*
X87598571Y-67741904D01*
X87646190Y-67837142D01*
X87646190Y-68218095D01*
X87217619Y-67265714D02*
X87170000Y-67218095D01*
X87122380Y-67122857D01*
X87122380Y-66884761D01*
X87170000Y-66789523D01*
X87217619Y-66741904D01*
X87312857Y-66694285D01*
X87408095Y-66694285D01*
X87550952Y-66741904D01*
X88122380Y-67313333D01*
X88122380Y-66694285D01*
X128433333Y-78452380D02*
X128100000Y-77976190D01*
X127861904Y-78452380D02*
X127861904Y-77452380D01*
X128242857Y-77452380D01*
X128338095Y-77500000D01*
X128385714Y-77547619D01*
X128433333Y-77642857D01*
X128433333Y-77785714D01*
X128385714Y-77880952D01*
X128338095Y-77928571D01*
X128242857Y-77976190D01*
X127861904Y-77976190D01*
X128766666Y-77452380D02*
X129385714Y-77452380D01*
X129052380Y-77833333D01*
X129195238Y-77833333D01*
X129290476Y-77880952D01*
X129338095Y-77928571D01*
X129385714Y-78023809D01*
X129385714Y-78261904D01*
X129338095Y-78357142D01*
X129290476Y-78404761D01*
X129195238Y-78452380D01*
X128909523Y-78452380D01*
X128814285Y-78404761D01*
X128766666Y-78357142D01*
X139552380Y-104106666D02*
X139076190Y-104440000D01*
X139552380Y-104678095D02*
X138552380Y-104678095D01*
X138552380Y-104297142D01*
X138600000Y-104201904D01*
X138647619Y-104154285D01*
X138742857Y-104106666D01*
X138885714Y-104106666D01*
X138980952Y-104154285D01*
X139028571Y-104201904D01*
X139076190Y-104297142D01*
X139076190Y-104678095D01*
X138885714Y-103249523D02*
X139552380Y-103249523D01*
X138504761Y-103487619D02*
X139219047Y-103725714D01*
X139219047Y-103106666D01*
X113632380Y-82056666D02*
X113156190Y-82390000D01*
X113632380Y-82628095D02*
X112632380Y-82628095D01*
X112632380Y-82247142D01*
X112680000Y-82151904D01*
X112727619Y-82104285D01*
X112822857Y-82056666D01*
X112965714Y-82056666D01*
X113060952Y-82104285D01*
X113108571Y-82151904D01*
X113156190Y-82247142D01*
X113156190Y-82628095D01*
X112632380Y-81151904D02*
X112632380Y-81628095D01*
X113108571Y-81675714D01*
X113060952Y-81628095D01*
X113013333Y-81532857D01*
X113013333Y-81294761D01*
X113060952Y-81199523D01*
X113108571Y-81151904D01*
X113203809Y-81104285D01*
X113441904Y-81104285D01*
X113537142Y-81151904D01*
X113584761Y-81199523D01*
X113632380Y-81294761D01*
X113632380Y-81532857D01*
X113584761Y-81628095D01*
X113537142Y-81675714D01*
X115373333Y-95902380D02*
X115040000Y-95426190D01*
X114801904Y-95902380D02*
X114801904Y-94902380D01*
X115182857Y-94902380D01*
X115278095Y-94950000D01*
X115325714Y-94997619D01*
X115373333Y-95092857D01*
X115373333Y-95235714D01*
X115325714Y-95330952D01*
X115278095Y-95378571D01*
X115182857Y-95426190D01*
X114801904Y-95426190D01*
X116230476Y-94902380D02*
X116040000Y-94902380D01*
X115944761Y-94950000D01*
X115897142Y-94997619D01*
X115801904Y-95140476D01*
X115754285Y-95330952D01*
X115754285Y-95711904D01*
X115801904Y-95807142D01*
X115849523Y-95854761D01*
X115944761Y-95902380D01*
X116135238Y-95902380D01*
X116230476Y-95854761D01*
X116278095Y-95807142D01*
X116325714Y-95711904D01*
X116325714Y-95473809D01*
X116278095Y-95378571D01*
X116230476Y-95330952D01*
X116135238Y-95283333D01*
X115944761Y-95283333D01*
X115849523Y-95330952D01*
X115801904Y-95378571D01*
X115754285Y-95473809D01*
X139732380Y-111495238D02*
X139256190Y-111828571D01*
X139732380Y-112066666D02*
X138732380Y-112066666D01*
X138732380Y-111685714D01*
X138780000Y-111590476D01*
X138827619Y-111542857D01*
X138922857Y-111495238D01*
X139065714Y-111495238D01*
X139160952Y-111542857D01*
X139208571Y-111590476D01*
X139256190Y-111685714D01*
X139256190Y-112066666D01*
X138732380Y-111209523D02*
X139732380Y-110876190D01*
X138732380Y-110542857D01*
X139732380Y-109685714D02*
X139732380Y-110257142D01*
X139732380Y-109971428D02*
X138732380Y-109971428D01*
X138875238Y-110066666D01*
X138970476Y-110161904D01*
X139018095Y-110257142D01*
M02*
