G04 #@! TF.GenerationSoftware,KiCad,Pcbnew,(5.1.2)-2*
G04 #@! TF.CreationDate,2019-07-05T17:58:29+05:30*
G04 #@! TF.ProjectId,AnimalBehaviour,416e696d-616c-4426-9568-6176696f7572,rev?*
G04 #@! TF.SameCoordinates,Original*
G04 #@! TF.FileFunction,Legend,Bot*
G04 #@! TF.FilePolarity,Positive*
%FSLAX46Y46*%
G04 Gerber Fmt 4.6, Leading zero omitted, Abs format (unit mm)*
G04 Created by KiCad (PCBNEW (5.1.2)-2) date 2019-07-05 17:58:29*
%MOMM*%
%LPD*%
G04 APERTURE LIST*
%ADD10C,0.500000*%
G04 APERTURE END LIST*
D10*
X110088571Y-118460000D02*
X110088571Y-120793333D01*
X109612380Y-117126666D02*
X109136190Y-119626666D01*
X110374285Y-119626666D01*
X112564761Y-120626666D02*
X112850476Y-120793333D01*
X113326666Y-120793333D01*
X113517142Y-120626666D01*
X113612380Y-120460000D01*
X113707619Y-120126666D01*
X113707619Y-119793333D01*
X113612380Y-119460000D01*
X113517142Y-119293333D01*
X113326666Y-119126666D01*
X112945714Y-118960000D01*
X112755238Y-118793333D01*
X112660000Y-118626666D01*
X112564761Y-118293333D01*
X112564761Y-117960000D01*
X112660000Y-117626666D01*
X112755238Y-117460000D01*
X112945714Y-117293333D01*
X113421904Y-117293333D01*
X113707619Y-117460000D01*
X114850476Y-120793333D02*
X114660000Y-120626666D01*
X114564761Y-120460000D01*
X114469523Y-120126666D01*
X114469523Y-119126666D01*
X114564761Y-118793333D01*
X114660000Y-118626666D01*
X114850476Y-118460000D01*
X115136190Y-118460000D01*
X115326666Y-118626666D01*
X115421904Y-118793333D01*
X115517142Y-119126666D01*
X115517142Y-120126666D01*
X115421904Y-120460000D01*
X115326666Y-120626666D01*
X115136190Y-120793333D01*
X114850476Y-120793333D01*
X116660000Y-120793333D02*
X116469523Y-120626666D01*
X116374285Y-120293333D01*
X116374285Y-117293333D01*
X117421904Y-120793333D02*
X117421904Y-118460000D01*
X117421904Y-117293333D02*
X117326666Y-117460000D01*
X117421904Y-117626666D01*
X117517142Y-117460000D01*
X117421904Y-117293333D01*
X117421904Y-117626666D01*
X119231428Y-120793333D02*
X119231428Y-117293333D01*
X119231428Y-120626666D02*
X119040952Y-120793333D01*
X118660000Y-120793333D01*
X118469523Y-120626666D01*
X118374285Y-120460000D01*
X118279047Y-120126666D01*
X118279047Y-119126666D01*
X118374285Y-118793333D01*
X118469523Y-118626666D01*
X118660000Y-118460000D01*
X119040952Y-118460000D01*
X119231428Y-118626666D01*
X121612380Y-120626666D02*
X121898095Y-120793333D01*
X122374285Y-120793333D01*
X122564761Y-120626666D01*
X122660000Y-120460000D01*
X122755238Y-120126666D01*
X122755238Y-119793333D01*
X122660000Y-119460000D01*
X122564761Y-119293333D01*
X122374285Y-119126666D01*
X121993333Y-118960000D01*
X121802857Y-118793333D01*
X121707619Y-118626666D01*
X121612380Y-118293333D01*
X121612380Y-117960000D01*
X121707619Y-117626666D01*
X121802857Y-117460000D01*
X121993333Y-117293333D01*
X122469523Y-117293333D01*
X122755238Y-117460000D01*
X123326666Y-118460000D02*
X124088571Y-118460000D01*
X123612380Y-117293333D02*
X123612380Y-120293333D01*
X123707619Y-120626666D01*
X123898095Y-120793333D01*
X124088571Y-120793333D01*
X125612380Y-120793333D02*
X125612380Y-118960000D01*
X125517142Y-118626666D01*
X125326666Y-118460000D01*
X124945714Y-118460000D01*
X124755238Y-118626666D01*
X125612380Y-120626666D02*
X125421904Y-120793333D01*
X124945714Y-120793333D01*
X124755238Y-120626666D01*
X124660000Y-120293333D01*
X124660000Y-119960000D01*
X124755238Y-119626666D01*
X124945714Y-119460000D01*
X125421904Y-119460000D01*
X125612380Y-119293333D01*
X126279047Y-118460000D02*
X127040952Y-118460000D01*
X126564761Y-117293333D02*
X126564761Y-120293333D01*
X126660000Y-120626666D01*
X126850476Y-120793333D01*
X127040952Y-120793333D01*
X128469523Y-120626666D02*
X128279047Y-120793333D01*
X127898095Y-120793333D01*
X127707619Y-120626666D01*
X127612380Y-120293333D01*
X127612380Y-118960000D01*
X127707619Y-118626666D01*
X127898095Y-118460000D01*
X128279047Y-118460000D01*
X128469523Y-118626666D01*
X128564761Y-118960000D01*
X128564761Y-119293333D01*
X127612380Y-119626666D01*
X132088571Y-120793333D02*
X131421904Y-119126666D01*
X130945714Y-120793333D02*
X130945714Y-117293333D01*
X131707619Y-117293333D01*
X131898095Y-117460000D01*
X131993333Y-117626666D01*
X132088571Y-117960000D01*
X132088571Y-118460000D01*
X131993333Y-118793333D01*
X131898095Y-118960000D01*
X131707619Y-119126666D01*
X130945714Y-119126666D01*
X133707619Y-120626666D02*
X133517142Y-120793333D01*
X133136190Y-120793333D01*
X132945714Y-120626666D01*
X132850476Y-120293333D01*
X132850476Y-118960000D01*
X132945714Y-118626666D01*
X133136190Y-118460000D01*
X133517142Y-118460000D01*
X133707619Y-118626666D01*
X133802857Y-118960000D01*
X133802857Y-119293333D01*
X132850476Y-119626666D01*
X134945714Y-120793333D02*
X134755238Y-120626666D01*
X134660000Y-120293333D01*
X134660000Y-117293333D01*
X136564761Y-120793333D02*
X136564761Y-118960000D01*
X136469523Y-118626666D01*
X136279047Y-118460000D01*
X135898095Y-118460000D01*
X135707619Y-118626666D01*
X136564761Y-120626666D02*
X136374285Y-120793333D01*
X135898095Y-120793333D01*
X135707619Y-120626666D01*
X135612380Y-120293333D01*
X135612380Y-119960000D01*
X135707619Y-119626666D01*
X135898095Y-119460000D01*
X136374285Y-119460000D01*
X136564761Y-119293333D01*
X137326666Y-118460000D02*
X137802857Y-120793333D01*
X138279047Y-118460000D02*
X137802857Y-120793333D01*
X137612380Y-121626666D01*
X137517142Y-121793333D01*
X137326666Y-121960000D01*
M02*
